PathFileType	4	(X/Y/Z)	\\147.46.242.158\로컬 디스크 (e)\MOCAP Data\Iguana Capture\iguana\Project 2\Capture day 7\Session 2\Take13.trc
DataRate	CameraRate	NumFrames	NumMarkers	Units	OrigDataRate	OrigDataStartFrame	OrigNumFrames
120.0	120.0	17	23	mm	120.0	84	7542
Frame#	Time	ana:head1			ana:head2			ana:bone1			ana:bone2			ana:bone3			ana:tail1			ana:tail2			ana:tail3			ana:tail4			ana:Rforefoot1			ana:Rforefoot2			ana:Rforefoot3			ana:Lforefoot1			ana:Lforefoot2			ana:Lforefoot3			ana:RhindLeg1			ana:RhindLeg2			ana:RhindLeg3			ana:RhindLeg4			ana:LhindLeg1			ana:LhindLeg2			ana:LhindLeg3			ana:LhindLeg4			
		X1	Y1	Z1	X2	Y2	Z2	X3	Y3	Z3	X4	Y4	Z4	X5	Y5	Z5	X6	Y6	Z6	X7	Y7	Z7	X8	Y8	Z8	X9	Y9	Z9	X10	Y10	Z10	X11	Y11	Z11	X12	Y12	Z12	X13	Y13	Z13	X14	Y14	Z14	X15	Y15	Z15	X16	Y16	Z16	X17	Y17	Z17	X18	Y18	Z18	X19	Y19	Z19	X20	Y20	Z20	X21	Y21	Z21	X22	Y22	Z22	X23	Y23	Z23	

4503	37.517	412.91818	237.40810	47.34569	412.99826	247.82213	47.76090	410.87448	269.85208	43.08806	397.50186	296.68695	41.33221	378.92038	323.48904	33.57683	356.61545	344.65536	25.42539	326.54105	365.15213	13.65309	303.96176	398.71667	6.16417	300.19446	440.46500	3.86313	403.82828	261.18268	27.05436	387.60648	265.16913	28.90516	388.10446	252.80527	14.62770	423.97992	273.86200	26.59866	431.13101	282.48032	19.06827	428.67044	278.80875	2.12180	371.41003	316.50595	25.36651	361.17447	302.12622	15.52816	354.57184	312.01770	0.86545	363.10117	306.07242	3.03963	383.37955	331.62177	27.29062	387.47845	349.05008	22.71774	378.77631	368.74725	14.82200	382.98358	377.13248	8.63261	
4504	37.525	413.34351	236.32689	47.29995	413.52383	246.68941	47.78706	411.16229	268.74579	43.03076	397.57584	295.46738	41.27460	379.35516	322.49857	33.61105	357.45770	344.18976	25.52470	327.53583	364.91074	13.85219	304.61176	398.29498	6.25099	300.27905	439.92935	3.80861	404.22296	259.79086	27.02671	387.93921	263.04944	28.46996	388.75446	249.08951	15.68797	424.20758	273.00653	26.60454	430.97467	281.94269	19.16768	428.60715	278.74689	2.14014	371.58240	315.82510	25.38792	360.91156	301.93558	15.35146	354.44699	312.21564	0.92736	363.19040	305.72696	3.46307	384.07928	330.49127	27.43281	388.69559	347.77060	23.08393	379.72498	367.26752	14.99569	383.93961	375.71768	8.90024	
4505	37.533	413.77344	235.21407	47.24463	414.05969	245.60428	47.84985	411.43332	267.73541	43.01504	397.71539	294.12708	41.11972	379.78867	321.53699	33.62245	358.32306	343.75586	25.55306	328.61752	364.71509	14.05865	305.27521	397.92993	6.36359	300.34665	439.40134	3.78221	404.58167	258.50104	26.97181	388.26044	260.94720	27.96400	389.57050	245.72844	16.61346	424.43469	272.15033	26.62449	430.80798	281.39352	19.25513	428.47354	278.71747	2.12497	371.73047	315.26624	25.36292	360.62704	301.78415	15.13715	354.05225	312.56644	1.13809	363.29153	305.51892	3.90581	384.80161	329.39185	27.56451	390.13184	346.42639	23.54066	380.78372	365.58606	15.12912	385.07166	374.06436	9.14483	
4506	37.542	414.24893	234.09178	47.25801	414.54233	244.56184	47.91014	411.67834	266.77850	43.01861	397.92725	292.71585	40.90934	380.24997	320.60730	33.60888	359.21735	343.33789	25.51736	329.78891	364.56610	14.27203	305.95547	397.61328	6.50690	300.40067	438.88089	3.78110	404.91113	257.00381	26.91005	388.60352	258.83688	27.46959	390.52362	242.83510	17.23850	424.65002	271.32303	26.63606	430.68811	280.83249	19.35510	428.21527	278.71896	2.01070	371.90387	314.81015	25.31006	360.29910	301.66461	14.90639	353.54959	312.98102	1.37300	363.37259	305.48746	4.35851	385.58716	328.32202	27.69781	391.78857	345.00516	24.03824	381.93076	363.60669	15.16031	386.36810	372.15063	9.36304	
4507	37.550	414.71759	232.97743	47.32279	414.98129	243.56166	47.95103	411.92258	265.82138	42.99858	398.17905	291.39420	40.70797	380.76349	319.72467	33.59243	360.10764	343.01257	25.47229	330.97226	364.44034	14.41834	306.65417	397.27551	6.63714	300.44052	438.35776	3.80505	405.33875	255.58813	26.86503	388.96774	256.73993	26.98454	391.51044	240.15521	17.70086	424.85126	270.52747	26.63183	430.59335	280.24103	19.44630	427.86880	278.78302	1.84456	372.12033	314.40054	25.24266	360.03683	301.56540	14.63874	353.15012	313.33353	1.56940	363.51086	305.58923	4.71510	386.37866	327.29846	27.80556	393.63541	343.43994	24.56633	383.20935	361.35419	15.11407	387.87271	369.96097	9.61196	
4508	37.558	415.18024	231.90002	47.45189	415.41284	242.60715	47.98019	412.18460	264.85648	42.97382	398.43628	290.17499	40.52700	381.28922	318.86453	33.55763	361.07251	342.68436	25.41396	332.14658	364.31528	14.49516	307.40063	396.85529	6.73970	300.47623	437.80496	3.83863	405.92542	254.20081	26.61812	389.38992	254.64207	26.45220	392.50485	237.67642	17.93918	425.05972	269.73785	26.62772	430.55154	279.63336	19.54237	427.49295	278.88403	1.64508	372.41464	313.98718	25.19411	359.82565	301.43970	14.35548	352.88382	313.64490	1.67637	363.64362	305.89398	4.80726	387.15677	326.28409	27.84693	395.60223	341.74011	25.12045	384.58749	358.83124	14.99837	389.60187	367.51480	9.89220	
4509	37.567	415.57611	230.89217	47.62090	415.82816	241.67717	48.00796	412.47488	263.85034	42.91220	398.70685	289.03790	40.39073	381.76883	318.08401	33.47884	362.09927	342.37003	25.37362	333.26443	364.15894	14.47397	308.18375	396.43381	6.82023	300.49783	437.23480	3.88573	406.63721	252.92035	26.28795	389.85294	252.55847	25.86175	393.30688	235.43053	18.00016	425.24799	268.95560	26.60881	430.57281	279.00598	19.64285	427.16095	278.98099	1.47407	372.73544	313.52060	25.16020	359.67911	301.32144	14.08843	352.83286	313.82751	1.66580	363.68887	306.39407	4.64693	387.93103	325.23816	27.80780	397.61249	339.88309	25.69562	386.12775	356.12396	14.88902	391.55176	364.86713	10.27378	
4510	37.575	415.84836	229.93846	47.67809	416.22610	240.75064	48.04536	412.78439	262.79129	42.82996	398.91595	288.01886	40.31711	382.25070	317.24442	33.38347	363.19263	342.05661	25.34793	334.39444	364.04224	14.44564	309.01764	395.97321	6.86589	300.52344	436.62082	3.90057	407.42548	251.78683	25.82527	390.38123	250.47606	25.21207	393.95129	233.37363	17.79463	425.49603	268.18994	26.63006	430.63699	278.39377	19.76799	427.02142	278.96405	1.47084	373.08188	313.01114	25.15162	359.59311	301.22037	13.86544	352.93570	313.93109	1.57305	363.61011	307.12479	4.15978	388.69427	324.14368	27.70164	399.64438	337.83255	26.27453	387.84131	353.28558	14.79018	393.74655	362.03183	10.73224	
4511	37.583	416.08670	228.96721	47.65718	416.57538	239.81096	48.09575	413.05331	261.77585	42.74331	399.12430	287.02881	40.23843	382.75427	316.43341	33.28019	364.31195	341.77100	25.36099	335.52460	363.96399	14.43154	309.90936	395.53159	6.92753	300.53754	435.99475	3.91270	408.19452	250.79312	25.27422	390.98856	248.35651	24.47285	394.56046	231.38574	17.36973	425.70981	267.41412	26.64973	430.69110	277.78531	19.87332	427.10278	278.82492	1.66465	373.46112	312.44012	25.13539	359.56696	301.14053	13.70856	353.10040	314.00482	1.53006	363.45264	307.89145	3.42231	389.43427	323.03549	27.57277	401.67938	335.58240	26.85618	389.78821	350.42764	14.78832	396.27304	359.07272	11.30748	
4512	37.592	416.34045	228.00858	47.58667	416.91513	238.88426	48.16907	413.34583	260.75183	42.66169	399.31570	286.05087	40.18270	383.26810	315.60898	33.20604	365.46252	341.43573	25.36765	336.74603	363.91638	14.50379	310.84332	395.18427	7.01382	300.54092	435.38937	3.91267	408.79156	249.77002	24.78354	391.67856	246.21115	23.67476	395.20728	229.44194	16.70386	425.89331	266.63940	26.65082	430.72964	277.17078	19.96129	427.32272	278.58115	1.98238	373.85626	311.87573	25.13272	359.55612	301.11087	13.63806	353.19644	314.13928	1.54427	363.27158	308.60324	2.62552	390.16385	321.92065	27.46456	403.65613	333.09537	27.39359	391.99902	347.57657	14.85895	399.12772	355.96997	11.97654	
4513	37.600	416.60812	227.05357	47.46613	417.26883	237.98177	48.26834	413.62158	259.77878	42.60955	399.50320	285.07730	40.13569	383.76663	314.83954	33.14096	366.62250	341.09491	25.38042	338.06592	363.91379	14.62855	311.85730	394.87839	7.13674	300.55185	434.81027	3.90566	409.22818	248.83063	24.31010	392.43417	244.08281	22.85934	395.92880	227.60611	15.85045	426.02826	265.84958	26.60748	430.76865	276.55551	20.05535	427.63449	278.26819	2.38476	374.25729	311.30328	25.11356	359.56158	301.06760	13.57531	353.15375	314.35074	1.66571	363.11240	309.16562	1.93066	390.87762	320.80869	27.40894	405.54523	330.43231	27.95936	394.51599	344.83585	15.07686	402.34424	352.61203	12.71705	
4514	37.608	416.79370	226.21306	47.31414	417.54532	237.07199	48.31736	413.81671	258.85046	42.55578	399.69675	284.09933	40.07866	384.28699	314.08594	33.09566	367.76709	340.77127	25.41307	339.50323	363.92850	14.79867	312.92831	394.61606	7.27118	300.59879	434.26483	3.90245	409.49783	247.71379	23.92944	393.28592	242.00371	21.99219	396.74969	225.88950	14.78366	426.09973	265.06387	26.51216	430.72247	275.91693	20.08678	427.89767	277.92493	2.72897	374.69281	310.74655	25.07681	359.58398	301.01648	13.53077	353.08640	314.60648	1.82632	363.00159	309.50067	1.43586	391.59326	319.69894	27.42201	407.25104	327.60849	28.49100	397.24185	342.22739	15.39670	405.84140	348.95374	13.55692	
4515	37.617	417.00418	225.33958	47.17919	417.78302	236.16605	48.34281	413.97357	257.91656	42.48642	399.89078	283.13403	40.01102	384.83994	313.33701	33.08459	368.89502	340.50388	25.47512	340.99847	363.91931	14.95183	314.03610	394.38318	7.40173	300.71307	433.71429	3.89724	409.61121	246.56589	23.69885	394.19244	240.04736	21.09933	397.64908	224.33472	13.51670	426.10367	264.26712	26.37310	430.65155	275.23514	20.09842	428.08151	277.62140	2.99840	375.13589	310.18851	25.05067	359.61987	300.95645	13.49033	353.15994	314.75153	1.93355	362.94852	309.56387	1.17804	392.35873	318.59454	27.55371	408.74173	324.73627	29.02884	400.12411	339.62286	15.73325	409.47125	344.95917	14.49296	
4516	37.625	417.17825	224.45512	47.04250	417.98468	235.24661	48.32447	414.09485	256.95584	42.40398	400.07257	282.15399	39.93524	385.42825	312.52252	33.09250	370.05850	340.19220	25.55181	342.51752	363.87463	15.09144	315.18500	394.07489	7.50332	300.90765	433.11200	3.88726	409.70285	245.42673	23.47120	395.02121	238.34474	20.17830	398.57318	222.90895	12.09721	426.15277	263.46365	26.28522	430.54987	274.51175	20.08594	428.17618	277.36179	3.17917	375.57855	309.64877	25.01616	359.67929	300.90097	13.45961	353.30978	314.79172	1.99822	362.95078	309.35129	1.14700	393.14517	317.45416	27.72089	410.01706	321.77917	29.53552	403.09589	337.05133	16.07750	413.10358	340.57895	15.40219	
4517	37.633	417.37036	223.49368	46.95670	418.13580	234.27702	48.23876	414.18225	255.94064	42.29317	400.26337	281.11325	39.86226	385.99115	311.74255	33.12813	371.22617	339.85049	25.64972	344.02167	363.78662	15.20331	316.34186	393.70789	7.56697	301.16849	432.42194	3.89012	409.73517	244.27597	23.31592	395.81604	236.89285	19.15199	399.44305	221.62152	10.53455	426.14261	262.60825	26.17178	430.42630	273.72791	20.03867	428.17328	277.16156	3.25734	376.00281	309.09842	24.99323	359.76285	300.85696	13.43792	353.46863	314.82626	2.06320	362.99933	308.89374	1.30412	393.92825	316.28891	27.90640	411.08240	318.80304	29.99561	406.10144	334.36600	16.30799	416.60687	335.85480	16.23197	
4518	37.642	417.49567	222.45393	46.84092	418.25241	233.24321	48.10030	414.24377	254.87222	42.15057	400.43604	280.02832	39.80278	386.52649	310.78436	33.16000	372.38281	339.43872	25.71985	345.50296	363.64828	15.29998	317.49390	393.26529	7.60531	301.47711	431.64124	3.90672	409.71423	243.12241	23.18829	396.52109	235.62270	18.07654	400.13477	220.47917	8.86254	426.19568	261.72327	26.09780	430.37820	272.91287	20.05526	428.15933	276.91858	3.34934	376.40692	308.51483	24.97816	359.87756	300.81992	13.42221	353.76901	314.74115	2.04553	363.08530	308.25510	1.60275	394.73105	315.07156	28.11552	411.99164	315.82458	30.37072	409.13016	331.45288	16.37703	419.80609	330.89038	16.80806	
4519	37.650	417.61313	221.35515	46.71021	418.27698	232.10521	47.86288	414.24280	253.74245	41.96244	400.59195	278.88782	39.73894	387.05429	309.78128	33.19173	373.52957	338.92966	25.82580	346.91705	363.46216	15.37978	318.64310	392.77032	7.64620	301.82095	430.78278	3.93886	409.56198	241.83888	23.09450	397.07535	234.51540	16.96449	400.60989	219.42754	7.24118	426.23245	260.77036	25.99726	430.37970	272.03720	20.10889	428.12689	276.64032	3.44502	376.80020	307.88123	24.97194	360.00882	300.76755	13.41869	354.07797	314.62186	2.03155	363.20087	307.49960	2.00040	395.51788	313.85880	28.34547	412.78165	312.89133	30.61293	412.14560	328.29126	16.24782	422.66891	325.78156	17.04358	
